<mxfile host="app.diagrams.net" modified="2024-07-27T17:08:13.692Z" agent="Mozilla/5.0 (Macintosh; Intel Mac OS X 10.15; rv:128.0) Gecko/20100101 Firefox/128.0" etag="gRESqksO289k2wuSLASt" version="24.6.5" type="device">
  <diagram name="Page-1" id="l4IEHYk-Q6bS7QpsoApg">
    <mxGraphModel dx="1922" dy="1609" grid="1" gridSize="10" guides="1" tooltips="1" connect="1" arrows="1" fold="1" page="1" pageScale="1" pageWidth="850" pageHeight="1100" math="0" shadow="0">
      <root>
        <mxCell id="0" />
        <mxCell id="1" parent="0" />
        <mxCell id="8u_PDTyfgPciH9jtyMFL-39" value="" style="rounded=0;whiteSpace=wrap;html=1;" vertex="1" parent="1">
          <mxGeometry y="200" width="1200" height="600" as="geometry" />
        </mxCell>
        <mxCell id="8u_PDTyfgPciH9jtyMFL-1" value="AWS Morocco Account" style="points=[[0,0],[0.25,0],[0.5,0],[0.75,0],[1,0],[1,0.25],[1,0.5],[1,0.75],[1,1],[0.75,1],[0.5,1],[0.25,1],[0,1],[0,0.75],[0,0.5],[0,0.25]];outlineConnect=0;gradientColor=none;html=1;whiteSpace=wrap;fontSize=12;fontStyle=0;container=1;pointerEvents=0;collapsible=0;recursiveResize=0;shape=mxgraph.aws4.group;grIcon=mxgraph.aws4.group_account;strokeColor=#CD2264;fillColor=none;verticalAlign=top;align=left;spacingLeft=30;fontColor=#CD2264;dashed=0;" vertex="1" parent="1">
          <mxGeometry x="40" y="240" width="1120" height="520" as="geometry" />
        </mxCell>
        <mxCell id="8u_PDTyfgPciH9jtyMFL-3" value="Region" style="points=[[0,0],[0.25,0],[0.5,0],[0.75,0],[1,0],[1,0.25],[1,0.5],[1,0.75],[1,1],[0.75,1],[0.5,1],[0.25,1],[0,1],[0,0.75],[0,0.5],[0,0.25]];outlineConnect=0;gradientColor=none;html=1;whiteSpace=wrap;fontSize=12;fontStyle=0;container=1;pointerEvents=0;collapsible=0;recursiveResize=0;shape=mxgraph.aws4.group;grIcon=mxgraph.aws4.group_region;strokeColor=#00A4A6;fillColor=none;verticalAlign=top;align=left;spacingLeft=30;fontColor=#147EBA;dashed=1;" vertex="1" parent="8u_PDTyfgPciH9jtyMFL-1">
          <mxGeometry x="40" y="40" width="600" height="453" as="geometry" />
        </mxCell>
        <mxCell id="8u_PDTyfgPciH9jtyMFL-15" value="" style="rounded=0;whiteSpace=wrap;html=1;fillColor=none;dashed=1;" vertex="1" parent="8u_PDTyfgPciH9jtyMFL-3">
          <mxGeometry x="40" y="40" width="520" height="240" as="geometry" />
        </mxCell>
        <mxCell id="8u_PDTyfgPciH9jtyMFL-16" value="" style="sketch=0;points=[[0,0,0],[0.25,0,0],[0.5,0,0],[0.75,0,0],[1,0,0],[0,1,0],[0.25,1,0],[0.5,1,0],[0.75,1,0],[1,1,0],[0,0.25,0],[0,0.5,0],[0,0.75,0],[1,0.25,0],[1,0.5,0],[1,0.75,0]];outlineConnect=0;fontColor=#232F3E;fillColor=#ED7100;strokeColor=#ffffff;dashed=0;verticalLabelPosition=bottom;verticalAlign=top;align=center;html=1;fontSize=12;fontStyle=0;aspect=fixed;shape=mxgraph.aws4.resourceIcon;resIcon=mxgraph.aws4.eks;" vertex="1" parent="8u_PDTyfgPciH9jtyMFL-3">
          <mxGeometry x="40" y="40" width="22" height="22" as="geometry" />
        </mxCell>
        <mxCell id="8u_PDTyfgPciH9jtyMFL-17" value="&lt;font color=&quot;#dd782d&quot; style=&quot;font-size: 11px;&quot;&gt;EKS Cluster&lt;/font&gt;" style="text;html=1;align=center;verticalAlign=middle;whiteSpace=wrap;rounded=0;" vertex="1" parent="8u_PDTyfgPciH9jtyMFL-3">
          <mxGeometry x="62" y="40" width="80" height="20" as="geometry" />
        </mxCell>
        <mxCell id="8u_PDTyfgPciH9jtyMFL-37" style="edgeStyle=orthogonalEdgeStyle;rounded=0;orthogonalLoop=1;jettySize=auto;html=1;dashed=1;strokeWidth=2;flowAnimation=1;" edge="1" parent="8u_PDTyfgPciH9jtyMFL-3" source="8u_PDTyfgPciH9jtyMFL-18" target="8u_PDTyfgPciH9jtyMFL-20">
          <mxGeometry relative="1" as="geometry">
            <Array as="points">
              <mxPoint x="375" y="240" />
              <mxPoint x="189" y="240" />
            </Array>
          </mxGeometry>
        </mxCell>
        <mxCell id="8u_PDTyfgPciH9jtyMFL-38" value="&lt;div&gt;6- Use STS Temporary &lt;br&gt;&lt;/div&gt;&lt;div&gt;Credentials to Access S3&lt;br&gt;&lt;/div&gt;" style="edgeLabel;html=1;align=center;verticalAlign=middle;resizable=0;points=[];" vertex="1" connectable="0" parent="8u_PDTyfgPciH9jtyMFL-37">
          <mxGeometry x="0.0423" relative="1" as="geometry">
            <mxPoint x="10" as="offset" />
          </mxGeometry>
        </mxCell>
        <mxCell id="8u_PDTyfgPciH9jtyMFL-18" value="Kubernetes Pod" style="aspect=fixed;sketch=0;html=1;dashed=0;whitespace=wrap;verticalLabelPosition=bottom;verticalAlign=top;fillColor=#2875E2;strokeColor=#ffffff;points=[[0.005,0.63,0],[0.1,0.2,0],[0.9,0.2,0],[0.5,0,0],[0.995,0.63,0],[0.72,0.99,0],[0.5,1,0],[0.28,0.99,0]];shape=mxgraph.kubernetes.icon2;kubernetesLabel=1;prIcon=pod" vertex="1" parent="8u_PDTyfgPciH9jtyMFL-3">
          <mxGeometry x="350" y="120" width="50" height="48" as="geometry" />
        </mxCell>
        <mxCell id="8u_PDTyfgPciH9jtyMFL-19" value="&lt;div&gt;Service Account&amp;nbsp;&lt;/div&gt;&lt;div&gt;Annotated with IAM Role ARN&lt;/div&gt;" style="aspect=fixed;sketch=0;html=1;dashed=0;whitespace=wrap;verticalLabelPosition=bottom;verticalAlign=top;fillColor=#2875E2;strokeColor=#ffffff;points=[[0.005,0.63,0],[0.1,0.2,0],[0.9,0.2,0],[0.5,0,0],[0.995,0.63,0],[0.72,0.99,0],[0.5,1,0],[0.28,0.99,0]];shape=mxgraph.kubernetes.icon2;kubernetesLabel=1;prIcon=sa" vertex="1" parent="8u_PDTyfgPciH9jtyMFL-3">
          <mxGeometry x="142" y="120" width="50" height="48" as="geometry" />
        </mxCell>
        <mxCell id="8u_PDTyfgPciH9jtyMFL-20" value="S3 bucket" style="sketch=0;outlineConnect=0;fontColor=#232F3E;gradientColor=none;fillColor=#7AA116;strokeColor=none;dashed=0;verticalLabelPosition=bottom;verticalAlign=top;align=center;html=1;fontSize=12;fontStyle=0;aspect=fixed;pointerEvents=1;shape=mxgraph.aws4.bucket;" vertex="1" parent="8u_PDTyfgPciH9jtyMFL-3">
          <mxGeometry x="170" y="360" width="38.46" height="40" as="geometry" />
        </mxCell>
        <mxCell id="8u_PDTyfgPciH9jtyMFL-21" value="EC2 instance" style="outlineConnect=0;dashed=0;verticalLabelPosition=bottom;verticalAlign=top;align=center;html=1;shape=mxgraph.aws3.ec2;fillColor=#F58534;gradientColor=none;" vertex="1" parent="8u_PDTyfgPciH9jtyMFL-3">
          <mxGeometry x="270" y="360" width="32.9" height="40" as="geometry" />
        </mxCell>
        <mxCell id="8u_PDTyfgPciH9jtyMFL-22" value="Aurora instance" style="sketch=0;points=[[0,0,0],[0.25,0,0],[0.5,0,0],[0.75,0,0],[1,0,0],[0,1,0],[0.25,1,0],[0.5,1,0],[0.75,1,0],[1,1,0],[0,0.25,0],[0,0.5,0],[0,0.75,0],[1,0.25,0],[1,0.5,0],[1,0.75,0]];outlineConnect=0;fontColor=#232F3E;fillColor=#C925D1;strokeColor=#ffffff;dashed=0;verticalLabelPosition=bottom;verticalAlign=top;align=center;html=1;fontSize=12;fontStyle=0;aspect=fixed;shape=mxgraph.aws4.resourceIcon;resIcon=mxgraph.aws4.aurora;" vertex="1" parent="8u_PDTyfgPciH9jtyMFL-3">
          <mxGeometry x="390" y="360" width="40" height="40" as="geometry" />
        </mxCell>
        <mxCell id="8u_PDTyfgPciH9jtyMFL-23" style="edgeStyle=orthogonalEdgeStyle;rounded=0;orthogonalLoop=1;jettySize=auto;html=1;entryX=0.96;entryY=0.5;entryDx=0;entryDy=0;entryPerimeter=0;dashed=1;strokeWidth=2;" edge="1" parent="8u_PDTyfgPciH9jtyMFL-3" source="8u_PDTyfgPciH9jtyMFL-18" target="8u_PDTyfgPciH9jtyMFL-19">
          <mxGeometry relative="1" as="geometry" />
        </mxCell>
        <mxCell id="8u_PDTyfgPciH9jtyMFL-24" value="&lt;b&gt;1- &lt;i&gt;Uses&lt;br&gt;&lt;/i&gt;&lt;/b&gt;" style="edgeLabel;html=1;align=center;verticalAlign=middle;resizable=0;points=[];" vertex="1" connectable="0" parent="8u_PDTyfgPciH9jtyMFL-23">
          <mxGeometry x="0.125" y="1" relative="1" as="geometry">
            <mxPoint y="-1" as="offset" />
          </mxGeometry>
        </mxCell>
        <mxCell id="8u_PDTyfgPciH9jtyMFL-25" style="edgeStyle=orthogonalEdgeStyle;rounded=0;orthogonalLoop=1;jettySize=auto;html=1;entryX=0.5;entryY=0;entryDx=0;entryDy=0;entryPerimeter=0;dashed=1;strokeWidth=2;" edge="1" parent="8u_PDTyfgPciH9jtyMFL-3" source="8u_PDTyfgPciH9jtyMFL-19" target="8u_PDTyfgPciH9jtyMFL-18">
          <mxGeometry relative="1" as="geometry">
            <Array as="points">
              <mxPoint x="160" y="100" />
              <mxPoint x="375" y="100" />
            </Array>
          </mxGeometry>
        </mxCell>
        <mxCell id="8u_PDTyfgPciH9jtyMFL-26" value="&lt;b&gt;2- inject JWT token&lt;/b&gt;" style="edgeLabel;html=1;align=center;verticalAlign=middle;resizable=0;points=[];" vertex="1" connectable="0" parent="8u_PDTyfgPciH9jtyMFL-25">
          <mxGeometry x="-0.0902" y="-2" relative="1" as="geometry">
            <mxPoint as="offset" />
          </mxGeometry>
        </mxCell>
        <mxCell id="8u_PDTyfgPciH9jtyMFL-9" value="&lt;div style=&quot;font-size: 11px;&quot;&gt;&lt;font style=&quot;font-size: 11px;&quot;&gt;Role&amp;nbsp;&lt;/font&gt;&lt;/div&gt;&lt;div style=&quot;font-size: 11px;&quot;&gt;&lt;font style=&quot;font-size: 11px;&quot;&gt;Trust Relationship&lt;/font&gt;&lt;/div&gt;" style="sketch=0;outlineConnect=0;fontColor=#232F3E;gradientColor=none;fillColor=#DD344C;strokeColor=none;dashed=0;verticalLabelPosition=bottom;verticalAlign=top;align=center;html=1;fontSize=12;fontStyle=0;aspect=fixed;pointerEvents=1;shape=mxgraph.aws4.sts;" vertex="1" parent="8u_PDTyfgPciH9jtyMFL-1">
          <mxGeometry x="1039" y="331" width="40" height="25.64" as="geometry" />
        </mxCell>
        <mxCell id="8u_PDTyfgPciH9jtyMFL-4" value="&lt;div&gt;OpenID Connect &lt;br&gt;&lt;/div&gt;&lt;div&gt;Provider&lt;br&gt;&lt;/div&gt;" style="sketch=0;points=[[0,0,0],[0.25,0,0],[0.5,0,0],[0.75,0,0],[1,0,0],[0,1,0],[0.25,1,0],[0.5,1,0],[0.75,1,0],[1,1,0],[0,0.25,0],[0,0.5,0],[0,0.75,0],[1,0.25,0],[1,0.5,0],[1,0.75,0]];outlineConnect=0;fontColor=#232F3E;fillColor=#DD344C;strokeColor=#ffffff;dashed=0;verticalLabelPosition=bottom;verticalAlign=top;align=center;html=1;fontSize=12;fontStyle=0;aspect=fixed;shape=mxgraph.aws4.resourceIcon;resIcon=mxgraph.aws4.identity_and_access_management;" vertex="1" parent="8u_PDTyfgPciH9jtyMFL-1">
          <mxGeometry x="868" y="40" width="60" height="60" as="geometry" />
        </mxCell>
        <mxCell id="8u_PDTyfgPciH9jtyMFL-29" style="edgeStyle=orthogonalEdgeStyle;rounded=0;orthogonalLoop=1;jettySize=auto;html=1;dashed=1;strokeWidth=2;" edge="1" parent="1" source="8u_PDTyfgPciH9jtyMFL-5" target="8u_PDTyfgPciH9jtyMFL-4">
          <mxGeometry relative="1" as="geometry" />
        </mxCell>
        <mxCell id="8u_PDTyfgPciH9jtyMFL-30" value="&lt;b&gt;4- Calls OIDC to Verify the Token&lt;/b&gt;" style="edgeLabel;html=1;align=center;verticalAlign=middle;resizable=0;points=[];" vertex="1" connectable="0" parent="8u_PDTyfgPciH9jtyMFL-29">
          <mxGeometry x="-0.0297" y="-3" relative="1" as="geometry">
            <mxPoint as="offset" />
          </mxGeometry>
        </mxCell>
        <mxCell id="8u_PDTyfgPciH9jtyMFL-31" style="edgeStyle=orthogonalEdgeStyle;rounded=0;orthogonalLoop=1;jettySize=auto;html=1;dashed=1;" edge="1" parent="1" source="8u_PDTyfgPciH9jtyMFL-5" target="8u_PDTyfgPciH9jtyMFL-9">
          <mxGeometry relative="1" as="geometry" />
        </mxCell>
        <mxCell id="8u_PDTyfgPciH9jtyMFL-32" value="&lt;div&gt;&lt;b&gt;4- Checks the Role Trust &lt;br&gt;&lt;/b&gt;&lt;/div&gt;&lt;div&gt;&lt;b&gt;Policy&lt;br&gt;&lt;/b&gt;&lt;/div&gt;" style="edgeLabel;html=1;align=center;verticalAlign=middle;resizable=0;points=[];" vertex="1" connectable="0" parent="8u_PDTyfgPciH9jtyMFL-31">
          <mxGeometry x="-0.0707" y="-2" relative="1" as="geometry">
            <mxPoint y="2" as="offset" />
          </mxGeometry>
        </mxCell>
        <mxCell id="8u_PDTyfgPciH9jtyMFL-33" style="edgeStyle=orthogonalEdgeStyle;rounded=0;orthogonalLoop=1;jettySize=auto;html=1;dashed=1;strokeWidth=2;" edge="1" parent="1" source="8u_PDTyfgPciH9jtyMFL-5" target="8u_PDTyfgPciH9jtyMFL-18">
          <mxGeometry relative="1" as="geometry">
            <Array as="points">
              <mxPoint x="460" y="520" />
            </Array>
          </mxGeometry>
        </mxCell>
        <mxCell id="8u_PDTyfgPciH9jtyMFL-36" value="&lt;b&gt;5- Return IAM Role Temporary Credentials &lt;br&gt;&lt;/b&gt;" style="edgeLabel;html=1;align=center;verticalAlign=middle;resizable=0;points=[];" vertex="1" connectable="0" parent="8u_PDTyfgPciH9jtyMFL-33">
          <mxGeometry x="-0.1985" y="3" relative="1" as="geometry">
            <mxPoint as="offset" />
          </mxGeometry>
        </mxCell>
        <mxCell id="8u_PDTyfgPciH9jtyMFL-34" style="edgeStyle=orthogonalEdgeStyle;rounded=0;orthogonalLoop=1;jettySize=auto;html=1;dashed=1;" edge="1" parent="1" source="8u_PDTyfgPciH9jtyMFL-5" target="8u_PDTyfgPciH9jtyMFL-6">
          <mxGeometry relative="1" as="geometry" />
        </mxCell>
        <mxCell id="8u_PDTyfgPciH9jtyMFL-35" value="&lt;b&gt;5- Get Temporary Credentials &lt;br&gt;&lt;/b&gt;" style="edgeLabel;html=1;align=center;verticalAlign=middle;resizable=0;points=[];" vertex="1" connectable="0" parent="8u_PDTyfgPciH9jtyMFL-34">
          <mxGeometry x="-0.1064" y="4" relative="1" as="geometry">
            <mxPoint as="offset" />
          </mxGeometry>
        </mxCell>
        <mxCell id="8u_PDTyfgPciH9jtyMFL-5" value="" style="sketch=0;outlineConnect=0;fontColor=#232F3E;gradientColor=none;fillColor=#DD344C;strokeColor=none;dashed=0;verticalLabelPosition=bottom;verticalAlign=top;align=center;html=1;fontSize=12;fontStyle=0;aspect=fixed;pointerEvents=1;shape=mxgraph.aws4.sts_alternate;" vertex="1" parent="1">
          <mxGeometry x="907" y="464" width="62" height="78" as="geometry" />
        </mxCell>
        <mxCell id="8u_PDTyfgPciH9jtyMFL-6" value="AWS IAM Role" style="sketch=0;outlineConnect=0;fontColor=#232F3E;gradientColor=none;fillColor=#DD344C;strokeColor=none;dashed=0;verticalLabelPosition=bottom;verticalAlign=top;align=center;html=1;fontSize=12;fontStyle=0;aspect=fixed;pointerEvents=1;shape=mxgraph.aws4.role;" vertex="1" parent="1">
          <mxGeometry x="899" y="614" width="78" height="44" as="geometry" />
        </mxCell>
        <mxCell id="8u_PDTyfgPciH9jtyMFL-12" value="&lt;i&gt;&lt;font style=&quot;font-size: 9px;&quot;&gt;attached to&lt;/font&gt;&lt;/i&gt;" style="edgeStyle=orthogonalEdgeStyle;rounded=0;orthogonalLoop=1;jettySize=auto;html=1;dashed=1;" edge="1" parent="1" source="8u_PDTyfgPciH9jtyMFL-8" target="8u_PDTyfgPciH9jtyMFL-6">
          <mxGeometry x="0.1208" relative="1" as="geometry">
            <Array as="points">
              <mxPoint x="1019" y="684" />
              <mxPoint x="1019" y="644" />
            </Array>
            <mxPoint as="offset" />
          </mxGeometry>
        </mxCell>
        <mxCell id="8u_PDTyfgPciH9jtyMFL-8" value="&lt;font style=&quot;font-size: 12px;&quot;&gt;Permission Policy&lt;/font&gt;" style="sketch=0;outlineConnect=0;fontColor=#232F3E;gradientColor=none;fillColor=#7AA116;strokeColor=none;dashed=0;verticalLabelPosition=bottom;verticalAlign=top;align=center;html=1;fontSize=12;fontStyle=0;aspect=fixed;pointerEvents=1;shape=mxgraph.aws4.policy;" vertex="1" parent="1">
          <mxGeometry x="1079" y="674" width="34.93" height="30" as="geometry" />
        </mxCell>
        <mxCell id="8u_PDTyfgPciH9jtyMFL-10" style="edgeStyle=orthogonalEdgeStyle;rounded=0;orthogonalLoop=1;jettySize=auto;html=1;dashed=1;" edge="1" parent="1" source="8u_PDTyfgPciH9jtyMFL-9" target="8u_PDTyfgPciH9jtyMFL-6">
          <mxGeometry relative="1" as="geometry">
            <Array as="points">
              <mxPoint x="1018" y="587" />
              <mxPoint x="1018" y="624" />
            </Array>
          </mxGeometry>
        </mxCell>
        <mxCell id="8u_PDTyfgPciH9jtyMFL-11" value="&lt;font style=&quot;font-size: 9px;&quot;&gt;&lt;i&gt;attached to&lt;br&gt;&lt;/i&gt;&lt;/font&gt;" style="edgeLabel;html=1;align=center;verticalAlign=middle;resizable=0;points=[];" vertex="1" connectable="0" parent="8u_PDTyfgPciH9jtyMFL-10">
          <mxGeometry x="-0.0962" y="2" relative="1" as="geometry">
            <mxPoint y="21" as="offset" />
          </mxGeometry>
        </mxCell>
        <mxCell id="8u_PDTyfgPciH9jtyMFL-27" style="edgeStyle=orthogonalEdgeStyle;rounded=0;orthogonalLoop=1;jettySize=auto;html=1;dashed=1;strokeWidth=2;" edge="1" parent="1" source="8u_PDTyfgPciH9jtyMFL-18" target="8u_PDTyfgPciH9jtyMFL-5">
          <mxGeometry relative="1" as="geometry">
            <Array as="points">
              <mxPoint x="850" y="424" />
              <mxPoint x="850" y="503" />
            </Array>
          </mxGeometry>
        </mxCell>
        <mxCell id="8u_PDTyfgPciH9jtyMFL-28" value="&lt;b&gt;3- Calls STS, providing the JWT Token&lt;/b&gt;" style="edgeLabel;html=1;align=center;verticalAlign=middle;resizable=0;points=[];" vertex="1" connectable="0" parent="8u_PDTyfgPciH9jtyMFL-27">
          <mxGeometry x="-0.0529" y="1" relative="1" as="geometry">
            <mxPoint y="1" as="offset" />
          </mxGeometry>
        </mxCell>
      </root>
    </mxGraphModel>
  </diagram>
</mxfile>
